<svg aria-hidden="true" style="position: absolute; width: 0; height: 0; overflow: hidden;" version="1.1" xmlns="http://www.w3.org/2000/svg" xmlns:xlink="http://www.w3.org/1999/xlink">
<defs>
<symbol id="icon-facebook" viewBox="0 0 32 32">
<path fill="none" stroke="#fff" stroke-width="2.2857" stroke-miterlimit="4" stroke-linecap="round" stroke-linejoin="round" style="stroke: var(--color1, #fff)" d="M24 2.667h-4c-1.768 0-3.464 0.702-4.714 1.953s-1.953 2.946-1.953 4.714v4h-4v5.333h4v10.667h5.333v-10.667h4l1.333-5.333h-5.333v-4c0-0.354 0.14-0.693 0.39-0.943s0.589-0.391 0.943-0.391h4v-5.333z"></path>
</symbol>
<symbol id="icon-instagram" viewBox="0 0 32 32">
<path fill="none" stroke="#fff" stroke-width="2.2857" stroke-miterlimit="4" stroke-linecap="round" stroke-linejoin="round" style="stroke: var(--color1, #fff)" d="M22.666 2.667h-13.333c-3.682 0-6.667 2.985-6.667 6.667v13.333c0 3.682 2.985 6.667 6.667 6.667h13.333c3.682 0 6.667-2.985 6.667-6.667v-13.333c0-3.682-2.985-6.667-6.667-6.667z"></path>
<path fill="none" stroke="#fff" stroke-width="2.2857" stroke-miterlimit="4" stroke-linecap="round" stroke-linejoin="round" style="stroke: var(--color1, #fff)" d="M21.333 15.16c0.164 1.11-0.025 2.243-0.542 3.239s-1.334 1.803-2.336 2.308c-1.002 0.504-2.137 0.68-3.245 0.502s-2.131-0.701-2.924-1.494c-0.793-0.793-1.316-1.816-1.494-2.924s-0.003-2.243 0.502-3.245c0.504-1.002 1.312-1.819 2.307-2.336s2.129-0.706 3.239-0.542c1.132 0.168 2.18 0.695 2.989 1.504s1.337 1.857 1.504 2.989z"></path>
<path fill="none" stroke="#fff" stroke-width="2.2857" stroke-miterlimit="4" stroke-linecap="round" stroke-linejoin="round" style="stroke: var(--color1, #fff)" d="M23.334 8.667h0.013"></path>
</symbol>
<symbol id="icon-logo-full" viewBox="0 0 40 32">
<path d="M16.463 31.448v-5.12l-0.132-0.839v-8.563c0-1.971-0.559-3.487-1.677-4.546-1.089-1.059-2.722-1.589-4.899-1.589-1.501 0-2.928 0.25-4.281 0.75s-2.501 1.162-3.443 1.986l-1.412-2.339c1.177-1 2.589-1.766 4.237-2.295 1.648-0.559 3.384-0.839 5.208-0.839 3.001 0 5.311 0.75 6.93 2.251 1.648 1.471 2.472 3.722 2.472 6.753v14.389h-3.001zM8.474 31.669c-1.736 0-3.252-0.28-4.546-0.839-1.265-0.589-2.236-1.383-2.913-2.383-0.677-1.030-1.015-2.207-1.015-3.531 0-1.206 0.28-2.295 0.839-3.266 0.589-1 1.53-1.795 2.825-2.383 1.324-0.618 3.090-0.927 5.297-0.927h7.989v2.339h-7.901c-2.236 0-3.796 0.397-4.679 1.192-0.853 0.794-1.28 1.78-1.28 2.957 0 1.324 0.515 2.383 1.545 3.178s2.472 1.192 4.326 1.192c1.766 0 3.281-0.397 4.546-1.192 1.295-0.824 2.236-2.001 2.825-3.531l0.706 2.163c-0.589 1.53-1.618 2.751-3.090 3.663-1.442 0.912-3.266 1.368-5.473 1.368z"></path>
<path d="M29.44 31.669c-2.413 0-4.531-0.5-6.356-1.501-1.824-1.030-3.251-2.428-4.281-4.193-1.030-1.795-1.545-3.84-1.545-6.135s0.486-4.326 1.457-6.091c1-1.766 2.354-3.149 4.061-4.149 1.736-1.030 3.678-1.545 5.826-1.545 2.178 0 4.105 0.5 5.782 1.501 1.707 0.971 3.046 2.354 4.017 4.149 0.971 1.766 1.457 3.811 1.457 6.135 0 0.147-0.015 0.309-0.044 0.486 0 0.147 0 0.309 0 0.486h-20.171v-2.339h18.494l-1.236 0.927c0-1.677-0.368-3.163-1.103-4.458-0.706-1.324-1.677-2.354-2.913-3.090s-2.663-1.103-4.281-1.103c-1.589 0-3.016 0.368-4.281 1.103s-2.251 1.766-2.957 3.090c-0.706 1.324-1.059 2.84-1.059 4.546v0.486c0 1.766 0.383 3.325 1.148 4.679 0.794 1.324 1.883 2.369 3.266 3.134 1.412 0.736 3.016 1.103 4.811 1.103 1.412 0 2.722-0.25 3.928-0.75 1.236-0.5 2.295-1.265 3.178-2.295l1.766 2.030c-1.030 1.236-2.325 2.177-3.884 2.825-1.53 0.647-3.222 0.971-5.076 0.971z"></path>
<path d="M37.296 3.31h-15.448v-3.31h15.448v3.31z"></path>
</symbol>
<symbol id="icon-Logo-mobile" viewBox="0 0 41 32">
<path d="M16.241 31.144v-4.916l-0.219-0.922v-8.384c0-1.785-0.527-3.16-1.58-4.126-1.024-0.995-2.575-1.492-4.653-1.492-1.375 0-2.721 0.234-4.038 0.702-1.317 0.439-2.429 1.039-3.336 1.8l-1.756-3.161c1.2-0.966 2.634-1.697 4.302-2.195 1.697-0.527 3.468-0.79 5.311-0.79 3.19 0 5.648 0.775 7.374 2.326s2.59 3.921 2.59 7.111v14.047h-3.994zM8.604 31.407c-1.727 0-3.248-0.293-4.565-0.878-1.288-0.585-2.283-1.39-2.985-2.414-0.702-1.053-1.054-2.239-1.054-3.556 0-1.258 0.293-2.4 0.878-3.424 0.615-1.024 1.595-1.844 2.941-2.458 1.375-0.615 3.219-0.922 5.531-0.922h7.375v3.029h-7.199c-2.107 0-3.526 0.351-4.258 1.053s-1.097 1.551-1.097 2.546c0 1.141 0.454 2.063 1.361 2.765 0.907 0.673 2.166 1.010 3.775 1.010 1.58 0 2.956-0.351 4.126-1.053 1.2-0.702 2.063-1.727 2.59-3.073l0.834 2.897c-0.556 1.375-1.536 2.473-2.941 3.292-1.405 0.79-3.175 1.185-5.311 1.185z"></path>
<path d="M29.718 31.407c-2.487 0-4.682-0.512-6.584-1.536-1.873-1.024-3.336-2.429-4.39-4.214-1.024-1.785-1.536-3.834-1.536-6.145s0.497-4.36 1.492-6.145c1.024-1.785 2.414-3.175 4.17-4.17 1.785-1.024 3.79-1.536 6.014-1.536 2.253 0 4.243 0.498 5.97 1.492s3.073 2.4 4.038 4.214c0.995 1.785 1.492 3.878 1.492 6.277 0 0.176-0.015 0.38-0.044 0.614 0 0.234-0.015 0.454-0.044 0.659h-19.797v-3.029h17.602l-1.712 1.053c0.029-1.492-0.278-2.824-0.922-3.995s-1.536-2.078-2.678-2.722c-1.112-0.673-2.414-1.010-3.907-1.010-1.463 0-2.765 0.337-3.907 1.010-1.141 0.644-2.034 1.566-2.678 2.765-0.644 1.171-0.966 2.517-0.966 4.038v0.702c0 1.551 0.351 2.941 1.053 4.17 0.732 1.2 1.741 2.136 3.029 2.809s2.765 1.010 4.433 1.010c1.375 0 2.619-0.234 3.731-0.702 1.141-0.468 2.136-1.171 2.985-2.107l2.327 2.721c-1.053 1.229-2.37 2.166-3.951 2.809-1.551 0.644-3.292 0.966-5.224 0.966z"></path>
<path d="M37.311 3.292h-15.364v-3.292h15.364v3.292z"></path>
</symbol>
<symbol id="icon-tel" viewBox="0 0 32 32">
<path d="M26.332 6.267l-3.347-3.344c-0.409-0.409-0.955-0.638-1.534-0.638s-1.125 0.226-1.534 0.638l-3.605 3.598c-0.409 0.409-0.638 0.958-0.638 1.537 0 0.581 0.226 1.125 0.638 1.537l2.816 2.819c-0.642 1.495-1.563 2.852-2.715 4-1.153 1.16-2.502 2.074-3.998 2.721l-2.816-2.819c-0.409-0.408-0.955-0.638-1.534-0.638-0.285-0.001-0.568 0.055-0.831 0.164s-0.502 0.271-0.703 0.473l-3.608 3.598c-0.409 0.408-0.638 0.958-0.638 1.537 0 0.581 0.226 1.125 0.638 1.537l3.344 3.344c0.698 0.698 1.659 1.097 2.646 1.097 0.204 0 0.402-0.016 0.603-0.050 4.161-0.685 8.291-2.9 11.625-6.232 3.331-3.337 5.544-7.466 6.235-11.63 0.198-1.182-0.198-2.398-1.047-3.249zM25.15 9.143c-0.613 3.705-2.605 7.401-5.607 10.402s-6.694 4.993-10.4 5.606c-0.465 0.078-0.943-0.078-1.282-0.415l-3.284-3.284 3.482-3.485 3.793 3.799 0.679-0.251c2.058-0.757 3.928-1.952 5.478-3.503s2.745-3.42 3.501-5.479l0.251-0.679-3.797-3.793 3.482-3.485 3.284 3.284c0.339 0.339 0.497 0.817 0.418 1.282z"></path>
</symbol>
<symbol id="icon-x-mobile" viewBox="0 0 32 32">
<path fill="none" stroke="#fff" stroke-width="2.6667" stroke-miterlimit="4" stroke-linecap="round" stroke-linejoin="round" style="stroke: var(--color1, #fff)" d="M24 8l-16 16"></path>
<path fill="none" stroke="#fff" stroke-width="2.6667" stroke-miterlimit="4" stroke-linecap="round" stroke-linejoin="round" style="stroke: var(--color1, #fff)" d="M8 8l16 16"></path>
</symbol>
<symbol id="icon-email-black" viewBox="0 0 24 32">
<path d="M20 8h-16c-1.1 0-1.99 0.9-1.99 2l-0.010 12c0 1.1 0.9 2 2 2h16c1.1 0 2-0.9 2-2v-12c0-1.1-0.9-2-2-2zM19.6 12.25l-7.070 4.42c-0.32 0.2-0.74 0.2-1.060 0l-7.070-4.42c-0.25-0.16-0.4-0.43-0.4-0.72 0-0.67 0.73-1.070 1.3-0.72l6.7 4.19 6.7-4.19c0.57-0.35 1.3 0.050 1.3 0.72 0 0.29-0.15 0.56-0.4 0.72z"></path>
</symbol>
<symbol id="icon-person" viewBox="0 0 32 32">
<path d="M16 16c2.947 0 5.333-2.387 5.333-5.333s-2.387-5.333-5.333-5.333c-2.947 0-5.333 2.387-5.333 5.333s2.387 5.333 5.333 5.333zM16 18.667c-3.56 0-10.667 1.787-10.667 5.333v1.333c0 0.733 0.6 1.333 1.333 1.333h18.667c0.733 0 1.333-0.6 1.333-1.333v-1.333c0-3.547-7.107-5.333-10.667-5.333z"></path>
</symbol>
<symbol id="icon-phone-black" viewBox="0 0 24 32">
<path d="M19.635 18.487l-2.451-0.28c-0.589-0.067-1.167 0.135-1.582 0.55l-1.775 1.775c-2.731-1.389-4.969-3.618-6.359-6.359l1.785-1.785c0.415-0.415 0.618-0.994 0.55-1.582l-0.28-2.432c-0.116-0.975-0.936-1.708-1.92-1.708h-1.669c-1.090 0-1.997 0.907-1.93 1.997 0.511 8.24 7.102 14.821 15.332 15.332 1.090 0.068 1.997-0.839 1.997-1.93v-1.669c0.010-0.975-0.724-1.795-1.698-1.911z"></path>
</symbol>
 <symbol id="icon-logo-element" viewBox="0 0 206 32">
      <path stroke-width="28.444" d="M-.014 16h206.222"/>
    </symbol>
    <symbol id="icon-btn" viewBox="0 0 29 32">
      <path d="M19.851 13.314a.21.21 0 0 0-.175-.241l-1.871-.296a.21.21 0 1 0-.066.416l1.663.263-.263 1.664a.21.21 0 1 0 .416.066l.296-1.871zm-9.622 7.067 9.538-6.93-.247-.341-9.538 6.93.248.341zm14.472-3.328a2.27 2.27 0 0 1 .173-.658c.093-.203.196-.358.311-.466l.285.208a1.72 1.72 0 0 0-.436.981c-.031.272-.011.472.059.601a.409.409 0 0 0 .322.218.304.304 0 0 0 .256-.076.592.592 0 0 0 .165-.246c.045-.105.086-.224.123-.355s.077-.263.122-.394c.044-.127.099-.242.166-.345a.758.758 0 0 1 .264-.24c.105-.054.239-.072.403-.054.156.017.291.077.404.177s.195.238.245.413c.053.179.066.389.039.632a2.088 2.088 0 0 1-.139.546 1.5 1.5 0 0 1-.242.436l-.291-.203c.101-.117.178-.246.231-.387.056-.141.093-.283.109-.428.029-.257.005-.453-.072-.586a.402.402 0 0 0-.317-.217.34.34 0 0 0-.267.069.765.765 0 0 0-.177.25 3.414 3.414 0 0 0-.123.355 5.02 5.02 0 0 1-.126.388c-.044.131-.1.248-.166.35a.625.625 0 0 1-.64.303.7.7 0 0 1-.419-.19.906.906 0 0 1-.238-.434 1.826 1.826 0 0 1-.026-.647zm1.971 4.049a1.31 1.31 0 0 1-.356.518.937.937 0 0 1-.531.236c-.208.027-.44-.011-.698-.114l-1.55-.62.145-.36 1.515.606c.281.112.522.126.721.041.202-.081.353-.248.456-.502.076-.19.104-.371.083-.544a.839.839 0 0 0-.2-.457 1.188 1.188 0 0 0-.473-.319l-1.403-.561.145-.361 3.771 1.508-.145.361-1.835-.734.166-.016c.159.162.255.358.289.587.037.231.004.475-.1.732zm-4.158 1.344a1.51 1.51 0 0 1 .619-.463 1.43 1.43 0 0 1 .733-.075c.254.041.491.152.712.331.224.182.38.391.469.628s.113.479.07.727c-.042.248-.152.48-.33.698-.18.22-.388.376-.622.468-.237.094-.48.12-.728.078a1.491 1.491 0 0 1-.712-.331 1.496 1.496 0 0 1-.469-.628 1.373 1.373 0 0 1-.075-.73 1.51 1.51 0 0 1 .334-.702zm.268.217a1.094 1.094 0 0 0-.244.514.999.999 0 0 0 .067.541c.073.182.196.342.369.483.176.143.359.23.549.262a.983.983 0 0 0 .541-.047c.175-.064.328-.176.457-.334s.208-.329.236-.514c.031-.182.011-.362-.059-.542s-.193-.34-.369-.483a1.201 1.201 0 0 0-.549-.262 1.059 1.059 0 0 0-.548.048 1.086 1.086 0 0 0-.449.333zm-2.803 2.079c.207-.137.425-.215.655-.232a1.3 1.3 0 0 1 .678.147c.219.117.416.306.591.567s.273.513.296.756c.025.247-.015.473-.119.678s-.261.378-.471.517a1.44 1.44 0 0 1-.714.252 1.303 1.303 0 0 1-.715-.142 1.52 1.52 0 0 1-.578-.529c-.162-.243-.253-.489-.271-.74s.029-.488.142-.713c.11-.222.279-.409.507-.561zm.659-1.682 2.19 3.27-.31.206-.481-.719-.288-.499-.368-.452-1.066-1.592.324-.215zm-.444 1.953c-.17.113-.297.252-.38.417a1.046 1.046 0 0 0-.1.54c.016.195.087.385.21.57s.272.321.444.408c.172.087.352.125.538.115s.365-.072.535-.185c.17-.113.297-.255.381-.424.081-.168.114-.348.1-.54-.017-.19-.088-.377-.212-.562s-.271-.323-.443-.415a1.05 1.05 0 0 0-.538-.115 1.108 1.108 0 0 0-.536.193zm-3.94 4.175c-.231.036-.44.022-.627-.041a.924.924 0 0 1-.473-.337c-.129-.165-.215-.384-.258-.658l-.257-1.65.384-.059.251 1.612c.047.299.157.513.332.641.172.132.393.177.664.136.202-.031.372-.1.511-.206a.833.833 0 0 0 .291-.405c.056-.164.067-.354.033-.57l-.233-1.493.384-.059.442 2.839-.368.057-.121-.779.082.137c-.058.22-.177.402-.358.548-.18.15-.407.246-.681.288zm-3.318-2.88c.274.04.513.138.715.293.198.158.344.355.438.59.094.239.12.499.078.78-.042.285-.142.527-.301.725s-.355.342-.59.433a1.492 1.492 0 0 1-.769.075 1.493 1.493 0 0 1-.72-.294 1.33 1.33 0 0 1-.439-.585 1.485 1.485 0 0 1-.078-.78c.042-.282.142-.523.301-.725a1.37 1.37 0 0 1 .591-.439 1.53 1.53 0 0 1 .775-.074zm-.051.341a1.101 1.101 0 0 0-.567.055 1.009 1.009 0 0 0-.431.335 1.196 1.196 0 0 0-.227.564c-.033.224-.015.426.054.605a.964.964 0 0 0 .317.439c.145.117.319.191.521.22s.39.009.562-.061c.172-.067.318-.177.436-.329s.194-.34.227-.564c.033-.22.014-.422-.054-.605a1.046 1.046 0 0 0-.321-.446 1.075 1.075 0 0 0-.516-.214zm-2.346-.831-.419 3.04-.327-.177.407-2.81.149.081-2.164 1.86-.294-.159.392-2.818.149.081-2.155 1.866-.313-.169 2.331-2.007.323.174-.35 2.66-.101-.055 2.05-1.742.323.174zm-4.598-3.622c.139.192.244.393.315.603.068.212.096.396.083.554l-.352.037a1.686 1.686 0 0 0-.077-.498 1.78 1.78 0 0 0-.262-.52c-.16-.222-.31-.357-.449-.405a.41.41 0 0 0-.386.055.305.305 0 0 0-.139.228.604.604 0 0 0 .043.293c.038.108.087.223.148.345s.12.246.175.373c.053.123.09.246.11.366a.747.747 0 0 1-.034.355.697.697 0 0 1-.262.31c-.127.092-.267.138-.419.14s-.306-.045-.46-.141a1.594 1.594 0 0 1-.455-.441 2.076 2.076 0 0 1-.265-.497 1.463 1.463 0 0 1-.114-.484l.353-.045c.004.155.034.302.09.441.053.142.122.272.208.39.152.21.301.338.448.386a.404.404 0 0 0 .381-.052.337.337 0 0 0 .151-.23.759.759 0 0 0-.037-.304 3.283 3.283 0 0 0-.148-.345 5.163 5.163 0 0 1-.168-.372 1.525 1.525 0 0 1-.113-.371.62.62 0 0 1 .271-.653.698.698 0 0 1 .439-.14.916.916 0 0 1 .469.162c.156.104.308.257.456.461zm-4.188-1.667a1.306 1.306 0 0 1-.085-.622.924.924 0 0 1 .235-.53c.136-.159.333-.287.593-.383l1.566-.579.136.364-1.53.566c-.284.105-.471.256-.562.453-.095.195-.095.42.001.677.071.192.173.345.305.459a.846.846 0 0 0 .456.205c.172.022.36-.005.566-.081l1.417-.524.136.364-3.809 1.409-.136-.364 1.853-.685-.112.123a1.037 1.037 0 0 1-.61-.241 1.369 1.369 0 0 1-.42-.609zm2.167-3.77c.015.277-.033.53-.145.759a1.414 1.414 0 0 1-.491.547 1.49 1.49 0 0 1-.749.232c-.288.016-.545-.035-.77-.15s-.406-.28-.542-.492a1.49 1.49 0 0 1-.226-.739 1.509 1.509 0 0 1 .145-.764c.112-.229.274-.411.486-.547.212-.139.462-.217.749-.232a1.51 1.51 0 0 1 .77.15c.225.112.408.276.547.491.136.216.212.464.227.744zm-.345.019a1.097 1.097 0 0 0-.167-.545 1.003 1.003 0 0 0-.414-.356 1.195 1.195 0 0 0-.598-.11 1.18 1.18 0 0 0-.583.174.971.971 0 0 0-.368.398c-.086.165-.124.35-.112.554s.068.384.172.539c.1.155.236.276.409.362s.372.122.598.11c.222-.012.416-.07.583-.174.162-.104.287-.238.373-.404.082-.165.118-.348.107-.548zm.667-3.427c-.061.241-.17.445-.329.612a1.288 1.288 0 0 1-.601.346c-.241.06-.514.052-.818-.024s-.547-.197-.727-.362c-.184-.166-.306-.361-.367-.583s-.06-.455.001-.699c.067-.265.187-.488.359-.666a1.29 1.29 0 0 1 .625-.374c.243-.067.504-.066.784.004.283.071.516.193.698.366s.307.381.374.624c.068.239.068.491.002.756zm.642 1.689-3.818-.954.091-.361.839.21.548.177.576.088 1.859.464-.095.377zm-.983-1.746c.05-.198.05-.386.001-.564a1.042 1.042 0 0 0-.289-.467c-.143-.134-.323-.227-.539-.281s-.417-.055-.603-.004a1.043 1.043 0 0 0-.748.772c-.05.198-.049.388.003.571.053.179.149.334.289.467.141.129.319.221.535.275s.418.058.607.011c.186-.051.345-.143.476-.276.129-.137.218-.305.268-.503zm.098-5.716c.147-.181.311-.311.493-.39a.932.932 0 0 1 .577-.069c.206.035.418.14.634.314l1.3 1.048-.245.302-1.27-1.024c-.236-.19-.462-.274-.678-.251-.216.018-.411.133-.583.345a1.094 1.094 0 0 0-.24.496.84.84 0 0 0 .056.495c.069.159.188.306.359.444l1.176.948-.245.302-2.237-1.803.235-.289.614.495-.153-.046a1.027 1.027 0 0 1-.103-.646c.033-.231.136-.455.311-.67zm4.35-.066a1.52 1.52 0 0 1-.727.263 1.434 1.434 0 0 1-.723-.141 1.497 1.497 0 0 1-.585-.524c-.161-.239-.25-.485-.267-.737s.032-.491.144-.716c.112-.225.285-.415.519-.572.236-.159.48-.247.731-.267.254-.021.494.024.72.137.229.11.424.285.585.524.159.236.248.482.267.737.019.251-.027.491-.141.721-.115.227-.29.419-.523.575zm-.193-.285c.173-.116.3-.256.383-.421.08-.168.111-.347.093-.537a1.19 1.19 0 0 0-.213-.569 1.188 1.188 0 0 0-.449-.411.975.975 0 0 0-.531-.112 1.06 1.06 0 0 0-.534.187 1.051 1.051 0 0 0-.476.959c.015.192.086.382.213.569.125.184.274.321.449.411.173.086.352.124.539.113.184-.014.36-.077.527-.188zm2.342-.991L8.765 3.699l.362-.087 1.588 2.358-.165.04.354-2.828.325-.079 1.604 2.355-.165.04.343-2.826.346-.084-.379 3.048-.356.086-1.529-2.209.112-.027-.349 2.664-.356.086zm5.835-.402a2.296 2.296 0 0 1-.638-.237 1.477 1.477 0 0 1-.433-.356l.236-.263a1.73 1.73 0 0 0 .933.53c.268.057.469.057.605.001a.407.407 0 0 0 .249-.299.305.305 0 0 0-.05-.263.605.605 0 0 0-.228-.189c-.1-.055-.214-.107-.341-.157s-.254-.103-.38-.16a1.558 1.558 0 0 1-.327-.199.754.754 0 0 1-.213-.286.7.7 0 0 1-.013-.406c.033-.153.105-.282.217-.385s.257-.171.436-.203c.183-.035.394-.028.633.023.182.039.359.103.53.192.172.085.308.18.409.283l-.232.27a1.257 1.257 0 0 0-.362-.268 1.61 1.61 0 0 0-.416-.15c-.253-.054-.45-.05-.591.014a.401.401 0 0 0-.248.294.337.337 0 0 0 .042.272.769.769 0 0 0 .231.201c.104.056.217.108.341.157.127.05.252.104.373.164.126.057.237.123.332.2a.615.615 0 0 1 .237.667.696.696 0 0 1-.231.398.908.908 0 0 1-.456.194 1.816 1.816 0 0 1-.647-.038zm4.27-1.56c.207.108.367.243.48.405.118.16.178.344.181.551.006.209-.056.436-.185.682l-.776 1.478-.345-.18.758-1.444c.141-.268.179-.506.114-.712-.06-.208-.211-.375-.454-.502a1.098 1.098 0 0 0-.534-.136.85.85 0 0 0-.476.153 1.192 1.192 0 0 0-.366.439l-.702 1.338-.345-.18L19.84 2.57l.345.18-.918 1.75.001-.166c.178-.142.382-.218.615-.229.234-.014.474.043.72.172zm.938 4.255a1.517 1.517 0 0 1-.402-.659 1.427 1.427 0 0 1-.003-.734c.066-.248.2-.472.401-.674.203-.204.428-.339.673-.404s.49-.065.733.001.465.198.664.396c.202.2.338.421.406.663.071.245.073.488.007.73-.064.245-.197.47-.401.674a1.502 1.502 0 0 1-.673.404 1.376 1.376 0 0 1-.737.003 1.53 1.53 0 0 1-.668-.399zm.243-.245c.148.146.311.244.49.292.181.046.363.041.547-.014.188-.055.361-.161.518-.319.16-.16.265-.333.316-.519a.958.958 0 0 0 .006-.541c-.047-.18-.143-.342-.289-.486s-.308-.238-.489-.284c-.179-.048-.361-.046-.547.006s-.359.158-.518.319a1.206 1.206 0 0 0-.316.519 1.044 1.044 0 0 0-.006.549c.05.178.146.337.289.478zm1.788 2.936a1.347 1.347 0 0 1-.17-.673c.008-.232.078-.452.211-.659.138-.206.345-.383.621-.531s.538-.222.783-.22c.248-.001.47.061.665.184s.352.296.472.517c.13.241.191.485.184.734-.002.25-.072.482-.209.696a1.508 1.508 0 0 1-.582.523c-.257.138-.512.204-.764.198s-.484-.076-.698-.21a1.443 1.443 0 0 1-.512-.558zm-1.615-.817 3.469-1.858.177.328-.762.408-.525.238-.486.322-1.689.904-.184-.342zm1.906.631c.097.18.224.319.38.417.16.097.336.147.529.151.196.003.392-.049.589-.154s.346-.239.449-.402c.103-.163.158-.337.166-.523s-.037-.369-.134-.549a1.043 1.043 0 0 0-.917-.57c-.191-.001-.385.051-.581.156s-.348.238-.456.4a1.047 1.047 0 0 0-.166.523 1.11 1.11 0 0 0 .142.551z"/>
    </symbol>
</defs>
</svg>
